<?xml version="1.0" encoding="UTF-8"?>
<svg id="Layer_2" data-name="Layer 2" xmlns="http://www.w3.org/2000/svg" viewBox="0 0 792 792">
  <defs>
    <style>
      .cls-1 {
        fill: #eb533d;
      }
    </style>
  </defs>
  <path class="cls-1" d="M552.55,144.5c.81.52,4.17.25,5.85.9,1.71.66,1.56,2.34,2.75,2.74,3.69,1.24,8.55-.29,7.42,6.75-30.29,71.61-59.12,144.04-93.6,213.74-6.38,12.91-18.34,27.03-22.84,39.06-2.19,5.86-.18,5.22-5.24,11.99-4.82,6.46-15.86,20.48-18.58,27.75-.69,1.84-.21,3.89-.94,5.42-.97,2.05-6.11,2.5-5.16,7.1l-4.4.17.07,2.28-3.1.46c-1.09-5-11.07-6.21-11.99-7.28-.81-.94-2.84-6.48-4.22-8.51-23.77-35.11-39.59-74.27-65.86-109.61-6.85-9.22-23.31-24.66-27.69-33.23-4.22-8.26-1.62-9.51.52-17.72l20.79-26.37c-.73-10.54-.31-7.03,6.24-10.97,2.19-1.32,5.97-8.39,8.37-10.91,1.1-1.15,2.92-1.17,4.16-2.45,1.66-1.73,2.17-5.52,2.91-6.38s8.78-2.96,10.28-2.99c1.64-.03,10.08.91,11.38,1.34,1.12.36,7.47,7.64,8.86,9.28,16.53,19.61,34.2,46.67,47.83,68.58,5.87,9.43,10.67,19.51,16.44,29,2.07-.04,16.81-32.44,17.76-37.24l1.72.86c7.53-16.72,14.38-33.77,21.73-50.58,8.81-20.16,18.9-40.32,26.06-61.23.3-.89-.31-2.32,0-2.75.94-1.28,4.26-.95,5.44-2.7,1.61-2.4,3.48-11.25,4.81-14.29,1.2-2.74,7.01-7.28,7.93-9.35s.58-5.27,1.83-8.17c1.17-2.73,8.15-9.9,10.74-9.83,1.17.03,2.67,1.36,4.02,1.48,1.74.15,3.56-1.11,5.09-.65,1.97.58,1.9,3.85,2.6,4.3ZM550.57,181.03c2.35-1.11,3.81-3.78,3.62-6.36-2.28.98-3.48,4.02-3.62,6.36ZM549.65,185.57c.52-.52-.76-2.7-1.36-2.7-2.52,0-.01,4.08,1.36,2.7Z"/>
  <path class="cls-1" d="M231.04,298.68c3.86,2.31,11.03,6.47,13.28,9.9,23.79,47.69,44.52,96.77,67.7,144.73.04.56-4.44,8.21-5.14,9.08-2.64,3.26-6.04,4.37-8.21,8.16-1.41,2.46-1.74,5.33-3.1,7.81-8.21,14.92-19.74,26.51-29.09,40.92-1.18,1.81-1.68,5.18-2.56,6.09-.31.32-7.11,4.77-7.55,4.81-3.77.37-5.39-5.22-6.51-5.52l-9.27-.08c-1.24-4.75-3-13.28-9.18-11.73-.17-5.41-3.28-11.62-5.74-16.56-5.27-10.61-11.97-24.28-16.92-35.97-3.12-7.37-5.01-15.77-9.36-23.22-.74-1.27-2.54-1.43-2.63-2.1l.87-2.94c-7.46-8.89-10.84-22.25-15.32-33.31-2.12-5.24-5.08-10.23-7.31-15.44l1.82-1.36,4.55,9.08c.13-4.91-1.47-10.3-1.47-15.15,0-3.4,1.85-10,1.51-12.53-.29-2.17-2.92-2.62-2.78-5.41.09-1.67,5.38-9.55,6.34-12.85,1.3-4.44.37-7.81,1.04-11.68,2.08-11.95,6.97-30.46,14.18-40.31,2.21-3.01,6.78-5.13,10.54-4.6s16.47,7.91,20.28,10.19ZM290.51,458.31c-2.92-2.57-4.11,4.88-.9,2.27.69-.56,1.36-1.87.9-2.27Z"/>
</svg>